PathFileType	4	(X/Y/Z)	C:\Users\Vitor Bertoli\OneDrive\Documents\Yolotestes\IMG_0212_Sports2D\IMG_0212_Sports2D_m_person00.trc
DataRate	CameraRate	NumFrames	NumMarkers	Units	OrigDataRate	OrigDataStartFrame	OrigNumFrames
112	112	8	22	m	112	300	401
Frame#	Time	Hip			RHip			RKnee			RAnkle			RBigToe			RSmallToe			RHeel			LHip			LKnee			LAnkle			LBigToe			LSmallToe			LHeel			Neck			Head			Nose			RShoulder			RElbow			RWrist			LShoulder			LElbow			LWrist		
		X1	Y1	Z1	X2	Y2	Z2	X3	Y3	Z3	X4	Y4	Z4	X5	Y5	Z5	X6	Y6	Z6	X7	Y7	Z7	X8	Y8	Z8	X9	Y9	Z9	X10	Y10	Z10	X11	Y11	Z11	X12	Y12	Z12	X13	Y13	Z13	X14	Y14	Z14	X15	Y15	Z15	X16	Y16	Z16	X17	Y17	Z17	X18	Y18	Z18	X19	Y19	Z19	X20	Y20	Z20	X21	Y21	Z21	X22	Y22	Z22
300	2.6785714285714284	10.797825224116739	0.9680599604679008	0.0	10.850891189384848	0.9703830427998332	0.0	11.174174582836882	0.6606763860750382	0.0	11.022061903948305	0.26850281034284174	0.0	11.210777082529262	0.15008142191761537	0.0	11.178357346485898	0.138482372077404	0.0	10.962859367176073	0.234187875150723	0.0	10.733563881585702	0.9775399872522422	0.0	10.568212515026284	0.5913266089849742	0.0	10.222382331471568	0.2791454915157953	0.0	10.212958080877488	0.0691865491436596	0.0	10.186377190816923	0.1018782988715616	0.0	10.148984316982858	0.27637520209747696	0.0	10.912390165289139	1.548585487719206	0.0	11.015913733783579	1.7888251755505982	0.0	11.05992496020495	1.6302531038196173	0.0	10.865711444272366	1.505099072064783	0.0	10.650110029800537	1.3385787178233077	0.0	10.818785376195521	1.1136492132906761	0.0	10.907015223497933	1.4963108152850126	0.0	10.832620756834379	1.3075775815060864	0.0	11.0365372790944	1.3677981015284357	0.0
301	2.6875	10.854846537503661	0.972680307668326	0.0	10.908176514883113	0.9747079733563594	0.0	11.230065051069472	0.662614768120668	0.0	11.123405040190468	0.24742960163949593	0.0	11.329034316186121	0.1495859235505428	0.0	11.296507094000223	0.13356624031716924	0.0	11.069545934471543	0.20771814411157682	0.0	10.790196190600035	0.9817261553677967	0.0	10.607411380588182	0.6034421113866141	0.0	10.249326896563598	0.3111568435617533	0.0	10.215434256590916	0.1017503557957397	0.0	10.190620807252657	0.13332127435390373	0.0	10.175432646319365	0.3143751372854857	0.0	10.963811636779514	1.5555458565922142	0.0	11.066933179046002	1.7921201017979422	0.0	11.112602933302927	1.6349137357949381	0.0	10.912423816171252	1.5097314011056537	0.0	10.6948014529151	1.34006079110276	0.0	10.866052737136629	1.1170945614135148	0.0	10.960379823135554	1.5008541236793072	0.0	10.878794092843751	1.316543300393699	0.0	11.084795387029851	1.376459526312357	0.0
302	2.696428571428571	10.911824658617526	0.9764903581384469	0.0	10.96534108534343	0.9781424588916225	0.0	11.28460121533476	0.6620901819516407	0.0	11.222968361747808	0.22985381374552064	0.0	11.44161740892172	0.15413724290909425	0.0	11.409625375175278	0.1335084615171466	0.0	11.174645121228153	0.18530035293240252	0.0	10.846455118812369	0.9852065318175047	0.0	10.648969644610725	0.6134306525824618	0.0	10.278884276885318	0.3453915593236674	0.0	10.220424898561216	0.13988118634059238	0.0	10.197834193625232	0.16994187732520735	0.0	10.20510074795056	0.3545699729569375	0.0	11.015111902860928	1.5613687617000174	0.0	11.11828302055257	1.7949026763199107	0.0	11.165472846902972	1.6388980762778331	0.0	10.959819329461856	1.5134469354825895	0.0	10.74062167517024	1.340561177427031	0.0	10.914240629357874	1.1195695699648605	0.0	11.013003192623263	1.5046453727621842	0.0	10.925783646349645	1.324981362984708	0.0	11.133816610645457	1.383993846478027	0.0
303	2.705357142857143	10.96872958956491	0.9794174000409437	0.0	11.022408190616575	0.9806892894684345	0.0	11.337941755899589	0.6593383030407367	0.0	11.319822968568888	0.21548533892359137	0.0	11.548005688828564	0.1626328622460283	0.0	11.517162316053927	0.13727118075803477	0.0	11.277118378190826	0.1665193598861809	0.0	10.902274448402721	0.9879855549958151	0.0	10.692899023218605	0.6210075401542757	0.0	10.311450575080539	0.3815074404958938	0.0	10.22849239510301	0.18314640202290436	0.0	10.208513357713528	0.21127146928029117	0.0	10.23857889950224	0.39652272801329264	0.0	11.066284697657897	1.5659101463528866	0.0	11.170109324722432	1.797342681090955	0.0	11.218545409903555	1.642240719665729	0.0	11.008002871104328	1.516261384546919	0.0	10.787640333223276	1.3401279148880723	0.0	10.963480098373871	1.1210949652086426	0.0	11.064990410697405	1.507726076460622	0.0	10.974535772921556	1.3327521023559166	0.0	11.183978073477892	1.3903538233295898	0.0
304	2.714285714285714	11.025528947528706	0.9814314767970708	0.0	11.079375999372933	0.982387873691754	0.0	11.390233986833907	0.6546250452204357	0.0	11.413085062240453	0.20388847593761622	0.0	11.647812708483178	0.17386239899350323	0.0	11.61867302362323	0.1437098454080214	0.0	11.375918642441713	0.15085881964240477	0.0	10.957673085039316	0.9900862872905871	0.0	10.739134097963255	0.6260400718005988	0.0	10.347504695249375	0.41908017623434585	0.0	10.240313563748156	0.23094760225224537	0.0	10.223300465072393	0.2567058829479422	0.0	10.276510890253922	0.43978602520141175	0.0	11.117328541109016	1.5690837433859688	0.0	11.222545649492114	1.7995315437322486	0.0	11.271773896040811	1.644938461069118	0.0	11.057027180472254	1.518201645783101	0.0	10.835928570512843	1.338807464425319	0.0	11.013905429589197	1.1216738116872762	0.0	11.116423954212209	1.5101408736039785	0.0	11.025541947704186	1.339624089893209	0.0	11.23546498883688	1.3953800552029358	0.0
305	2.7232142857142856	11.082175602709453	0.982530895422661	0.0	11.136215581021201	0.9832780950402004	0.0	11.4416175218999	0.6482573696033043	0.0	11.50198271260526	0.19455617978994977	0.0	11.740781059761558	0.18656488088633472	0.0	11.713788279843692	0.15164271085173744	0.0	11.47008899836591	0.13777488463479423	0.0	11.012740182274033	0.9915036319264394	0.0	10.787554324057908	0.6285404098663464	0.0	10.387511775828196	0.4576185463650364	0.0	10.256706839660215	0.2825733921433866	0.0	10.242983450273874	0.3055667204908295	0.0	10.319472019396493	0.4839207711162914	0.0	11.168284154147734	1.5708925787816361	0.0	11.275638976115484	1.801461304730039	0.0	11.325076800015685	1.646952439288382	0.0	11.10690678144222	1.519283153303446	0.0	10.885549026142487	1.3366341580120533	0.0	11.065652105613834	1.121291131274134	0.0	11.167374663876021	1.5119046089976458	0.0	11.078873072140645	1.3452776503723036	0.0	11.288288772495147	1.3988358938027208	0.0
306	2.732142857142857	11.138616093682199	0.9827210312290885	0.0	11.192888562037918	0.9833728439298455	0.0	11.49223579391167	0.6405759690544405	0.0	11.585885943812253	0.18693971142676158	0.0	11.826771898578642	0.19943269586529389	0.0	11.80221564480271	0.15988174399413232	0.0	11.55883771388882	0.12671576703116857	0.0	11.067604756998785	0.9921842576423845	0.0	10.838016731380709	0.6286340408042418	0.0	10.431845148113567	0.49658417344107453	0.0	10.27854849281572	0.3372259812125484	0.0	10.268377591855316	0.35711442149005834	0.0	10.367859370815346	0.5284651373226534	0.0	11.21924084333842	1.5714357808688852	0.0	11.329311140718364	1.8030570481280457	0.0	11.378387121702348	1.648226980922955	0.0	11.157615896420603	1.5195029871745647	0.0	10.936551890366417	1.333614036260306	0.0	11.118859868553034	1.1199233984513732	0.0	11.217946632414064	1.5129982575392957	0.0	11.134349495943646	1.3494061113833098	0.0	11.342340524350426	1.4004621362977694	0.0
307	2.7410714285714284	11.194816344360058	0.9820061357936034	0.0	11.249383856479636	0.9826558967607494	0.0	11.54224829329131	0.6319276566292408	0.0	11.664307049994301	0.18045550951958983	0.0	11.9057475345509	0.211162785535974	0.0	11.883735023960345	0.16729080277742117	0.0	11.641557596751962	0.11714074038250162	0.0	11.122403297450768	0.9920542034111985	0.0	10.890380306512737	0.6265167933577634	0.0	10.480751859766473	0.5354111365584537	0.0	10.306640063046169	0.3940252202272929	0.0	10.300182020168643	0.4105297952480784	0.0	10.421821330152303	0.572890049966914	0.0	11.270308149230184	1.5708794392159888	0.0	11.383383675935573	1.8042213929646829	0.0	11.431681503144135	1.648708812438205	0.0	11.209072194188789	1.5188391960463623	0.0	10.988983982269666	1.3297112500689425	0.0	11.17366959699054	1.1175536298186153	0.0	11.26830024849493	1.5133885178368618	0.0	11.191655345460562	1.351809284840943	0.0	11.397417819210434	1.400029043389781	0.0
